<svg version="1.1" id="Layer_1" xmlns="http://www.w3.org/2000/svg" xmlns:xlink="http://www.w3.org/1999/xlink" x="0px" y="0px"
	 width="100%" viewBox="0 0 500 500" enable-background="new 0 0 500 500" xml:space="preserve">

<path fill="#57C59B" opacity="1.000000" stroke="none" 
	d="
M142.135315,380.963684 
	C134.466019,377.655426 126.132416,375.355927 119.263329,370.832489 
	C104.160133,360.886719 96.125244,346.294586 96.091484,327.991852 
	C95.974670,264.661072 96.004105,201.329926 96.064445,137.998993 
	C96.080376,121.276482 104.105537,108.452209 116.586555,98.133728 
	C123.932831,92.060326 132.861115,89.556404 142.783401,88.014175 
	C143.676010,88.075729 143.868027,88.107819 144.396759,88.367607 
	C146.048492,88.730446 147.363434,88.983467 148.678452,88.983826 
	C216.506302,89.002510 284.334137,89.005844 352.161957,88.961937 
	C353.760437,88.960907 355.358582,88.404289 357.224854,88.074173 
	C357.672394,88.028458 357.851898,88.015396 358.031433,88.002335 
	C371.886963,89.876381 383.827148,95.417290 393.024963,106.238121 
	C402.048462,116.853867 405.990448,129.233383 405.989777,143.041687 
	C405.986816,204.655899 406.259338,266.271667 405.872467,327.883362 
	C405.763458,345.245270 398.244843,359.591003 383.831360,370.070160 
	C375.727539,375.961914 367.125061,379.932434 356.235321,379.979004 
	C355.299805,379.933472 355.100525,379.913330 354.575043,379.657104 
	C353.103851,379.282898 351.958893,379.024597 350.813812,379.023956 
	C309.416168,379.001221 268.018494,378.989594 226.620956,379.050812 
	C225.074539,379.053101 223.529205,379.796783 222.018539,380.458130 
	C222.045776,381.074890 222.037842,381.428406 222.029922,381.781982 
	C211.051239,389.158417 200.024109,396.464081 189.109467,403.934143 
	C180.662598,409.715240 172.399094,415.763763 163.974304,421.577789 
	C157.431961,426.092682 146.605606,422.886536 144.129745,415.142883 
	C144.205063,404.775360 144.142303,395.045990 143.960144,385.318878 
	C143.932983,383.867645 143.344803,382.426941 142.796036,380.972778 
	C142.575912,380.964233 142.135315,380.963684 142.135315,380.963684 
M167.485046,389.886292 
	C167.989029,389.528778 168.493011,389.171265 169.230835,388.178070 
	C174.571518,384.509308 179.889587,380.807068 185.257889,377.179138 
	C194.775467,370.747070 204.323563,364.360138 214.590729,357.991089 
	C215.078934,358.003540 215.567154,358.015991 216.700974,358.528534 
	C217.674210,358.684967 218.647369,358.977753 219.620697,358.978271 
	C262.654480,359.001251 305.688293,359.007812 348.722046,358.957428 
	C350.136841,358.955750 351.550903,358.344055 353.532959,357.945587 
	C354.025604,357.677856 354.518219,357.410095 355.802399,357.006561 
	C364.190063,355.616028 371.223846,351.510254 375.647888,344.453186 
	C378.738861,339.522644 380.088135,333.500305 382.648834,327.265259 
	C382.766602,326.283142 382.987122,325.301086 382.987427,324.318939 
	C383.005646,263.978516 383.011566,203.638077 382.973389,143.297653 
	C382.972473,141.865372 382.459198,140.433411 382.019836,138.227402 
	C374.843658,113.529373 363.204468,111.165459 347.610748,111.083336 
	C283.151733,110.743820 218.689728,110.889870 154.229294,111.048462 
	C149.252121,111.060715 143.937424,111.696762 139.367111,113.517540 
	C125.447006,119.063187 120.051872,130.575043 120.019310,144.788773 
	C119.891464,200.587921 119.925804,256.387604 120.004303,312.186920 
	C120.013802,318.937836 120.344902,325.722168 121.079689,332.430450 
	C122.270752,343.304382 128.666580,350.890198 138.441757,354.769104 
	C143.558502,356.799500 149.660950,356.346710 155.318542,357.012848 
	C159.799103,357.540436 164.158829,358.235107 164.962723,364.617432 
	C164.945374,365.105682 164.928024,365.593964 164.433334,366.733124 
	C164.613007,374.479889 164.792694,382.226654 165.008408,390.396210 
	C165.008408,390.396210 165.011124,390.820557 165.266083,391.252625 
	C165.826584,391.227478 166.387085,391.202301 166.999756,390.505310 
	C166.978775,390.281647 166.957779,390.058014 166.948639,389.931549 
	C166.948639,389.931549 166.850815,389.935211 167.485046,389.886292 
z"/>
<path fill="#AFEDD5" opacity="1.000000" stroke="none" 
	d="
M357.854248,87.596420 
	C357.851898,88.015396 357.672394,88.028458 356.762787,88.016281 
	C326.702576,87.992363 297.372467,87.976456 268.042328,87.999130 
	C226.714874,88.031075 185.387466,88.091606 144.060028,88.139915 
	C143.868027,88.107819 143.676010,88.075729 143.192642,88.022484 
	C144.058167,87.662582 145.214859,87.028015 146.371933,87.027382 
	C216.146713,86.989235 285.921509,87.002693 355.696320,87.019608 
	C356.356567,87.019768 357.016815,87.131088 357.854248,87.596420 
z"/>
<path fill="#8CDCBF" opacity="1.000000" stroke="none" 
	d="
M222.436096,381.683990 
	C222.037842,381.428406 222.045776,381.074890 222.487213,380.397949 
	C227.586288,380.048065 232.251846,380.002594 236.917450,379.997955 
	C276.245361,379.958832 315.573303,379.927124 354.901215,379.893188 
	C355.100525,379.913330 355.299805,379.933472 355.798096,379.983948 
	C354.430786,380.342133 352.764862,380.953979 351.098145,380.956146 
	C310.121033,381.009796 269.143860,380.991394 228.166687,381.024078 
	C226.391739,381.025482 224.617065,381.390442 222.436096,381.683990 
z"/>
<path fill="#48AF86" opacity="1.000000" stroke="none" 
	d="
M143.016159,380.981354 
	C143.344803,382.426941 143.932983,383.867645 143.960144,385.318878 
	C144.142303,395.045990 144.205063,404.775360 144.068710,414.774841 
	C143.233276,414.253906 142.635681,413.462097 142.366608,412.028870 
	C142.802155,401.252075 142.909164,391.116730 143.016159,380.981354 
z"/>
<path fill="#82CEB3" opacity="1.000000" stroke="none" 
	d="
M142.796036,380.972778 
	C142.909164,391.116730 142.802155,401.252075 142.427963,411.713348 
	C142.107452,401.993744 142.054123,391.948273 142.068054,381.433228 
	C142.135315,380.963684 142.575912,380.964233 142.796036,380.972778 
z"/>
<path fill="#58B493" opacity="1.000000" stroke="none" 
	d="
M144.396759,88.367607 
	C185.387466,88.091606 226.714874,88.031075 268.042328,87.999130 
	C297.372467,87.976456 326.702576,87.992363 356.494812,88.048935 
	C355.358582,88.404289 353.760437,88.960907 352.161957,88.961937 
	C284.334137,89.005844 216.506302,89.002510 148.678452,88.983826 
	C147.363434,88.983467 146.048492,88.730446 144.396759,88.367607 
z"/>
<path fill="#B0E0CD" opacity="1.000000" stroke="none" 
	d="
M382.432068,327.615417 
	C382.143890,326.973480 382.009888,325.981354 382.009949,324.989227 
	C382.013153,263.304749 382.027283,201.620239 382.112671,139.468521 
	C382.459198,140.433411 382.972473,141.865372 382.973389,143.297653 
	C383.011566,203.638077 383.005646,263.978516 382.987427,324.318939 
	C382.987122,325.301086 382.766602,326.283142 382.432068,327.615417 
z"/>
<path fill="#5FB897" opacity="1.000000" stroke="none" 
	d="
M214.224808,357.972687 
	C215.396927,357.634644 216.934692,357.037292 218.473053,357.035767 
	C263.674622,356.991333 308.876251,357.006195 354.544373,357.076996 
	C354.518219,357.410095 354.025604,357.677856 352.784546,357.976624 
	C306.709229,358.014587 261.382294,358.021515 216.055359,358.028442 
	C215.567154,358.015991 215.078934,358.003540 214.224808,357.972687 
z"/>
<path fill="#48BF94" opacity="1.000000" stroke="none" 
	d="
M216.378174,358.278503 
	C261.382294,358.021515 306.709229,358.014587 352.500732,358.012177 
	C351.550903,358.344055 350.136841,358.955750 348.722046,358.957428 
	C305.688293,359.007812 262.654480,359.001251 219.620697,358.978271 
	C218.647369,358.977753 217.674210,358.684967 216.378174,358.278503 
z"/>
<path fill="#48AF86" opacity="1.000000" stroke="none" 
	d="
M354.575043,379.657104 
	C315.573303,379.927124 276.245361,379.958832 236.917450,379.997955 
	C232.251846,380.002594 227.586288,380.048065 222.452026,380.134766 
	C223.529205,379.796783 225.074539,379.053101 226.620956,379.050812 
	C268.018494,378.989594 309.416168,379.001221 350.813812,379.023956 
	C351.958893,379.024597 353.103851,379.282898 354.575043,379.657104 
z"/>
<path fill="#82CEB3" opacity="1.000000" stroke="none" 
	d="
M164.983032,364.251343 
	C165.340576,366.345520 165.899109,368.799347 165.971252,371.267365 
	C166.148819,377.342499 166.102798,383.424194 166.541748,389.668823 
	C166.957779,390.058014 166.978775,390.281647 166.650391,390.788116 
	C165.871048,390.987457 165.441086,390.903992 165.011124,390.820557 
	C165.011124,390.820557 165.008408,390.396210 164.994965,389.719177 
	C164.957916,381.388855 164.934296,373.735535 164.910675,366.082214 
	C164.928024,365.593964 164.945374,365.105682 164.983032,364.251343 
z"/>
<path fill="#48B48D" opacity="1.000000" stroke="none" 
	d="
M164.671997,366.407654 
	C164.934296,373.735535 164.957916,381.388855 164.976959,389.507812 
	C164.792694,382.226654 164.613007,374.479889 164.671997,366.407654 
z"/>
<path fill="#82CEB3" opacity="1.000000" stroke="none" 
	d="
M167.167938,389.910767 
	C167.361526,389.627350 167.872253,389.319519 168.689972,388.912720 
	C168.493011,389.171265 167.989029,389.528778 167.167938,389.910767 
z"/>
<path fill="#48B48D" opacity="1.000000" stroke="none" 
	d="
M165.138611,391.036591 
	C165.441086,390.903992 165.871048,390.987457 166.624298,391.124023 
	C166.387085,391.202301 165.826584,391.227478 165.138611,391.036591 
z"/>
<path fill="#57C59B" opacity="1.000000" stroke="none" 
	d="
M324.203003,137.014771 
	C324.381653,138.227097 325.070587,139.661865 324.655029,140.615173 
	C322.199829,146.247894 319.746979,151.917328 316.697693,157.232697 
	C315.832703,158.740448 312.991089,159.837234 311.031403,159.875809 
	C298.937286,160.113785 286.836182,159.995300 275.531433,159.995300 
	C278.010101,168.035553 280.493561,176.091431 283.334717,184.813477 
	C285.497406,185.645248 287.301819,185.946411 289.107513,185.954468 
	C300.759857,186.006363 312.412506,185.994202 324.065033,186.003067 
	C324.022339,187.748657 324.504852,189.730988 323.843689,191.197815 
	C321.325684,196.784256 318.438660,202.204376 315.017883,207.845520 
	C313.874390,207.980865 313.402496,207.957321 312.606842,207.688202 
	C302.888611,207.596420 293.494202,207.750183 283.877502,208.051483 
	C283.443115,208.481689 283.231049,208.764389 283.018982,209.047089 
	C278.695221,230.878540 266.150299,250.300705 227.505508,259.851349 
	C234.436172,268.167603 241.224731,276.233673 247.924774,284.372650 
	C256.683075,295.011871 265.341003,305.733765 274.103241,316.369690 
	C278.158478,321.292023 282.447540,326.024017 286.425201,331.006256 
	C287.329651,332.139130 288.082581,334.245331 287.613892,335.360992 
	C287.216217,336.307587 284.963470,336.883820 283.517487,336.912476 
	C276.025818,337.061127 268.522919,337.155853 261.039398,336.867371 
	C258.987183,336.788300 256.392548,335.864197 255.066040,334.402740 
	C248.605972,327.285522 242.554443,319.799774 236.238327,312.548950 
	C228.995178,304.233948 221.565430,296.081451 214.326828,287.762573 
	C205.458969,277.571289 196.684799,267.298035 187.945450,256.996307 
	C187.322235,256.261658 187.101700,255.011230 187.063492,253.986816 
	C186.945633,250.826630 186.996811,247.659760 187.000717,244.495499 
	C187.009781,237.150620 187.022003,237.315643 194.443176,236.963028 
	C206.885437,236.371826 219.390396,236.424789 231.561646,233.005478 
	C242.454803,229.945236 250.238403,223.422684 254.963898,213.178986 
	C255.506454,212.002808 256.135529,210.866562 256.823120,209.163666 
	C256.921722,208.615524 256.956482,208.179153 256.659485,207.887878 
	C254.405411,207.397675 252.448608,207.029587 250.491135,207.025787 
	C228.896881,206.983963 207.302429,207.028931 185.708359,206.953568 
	C183.436279,206.945648 181.166367,206.319244 178.895447,205.979797 
	C181.642227,199.439697 184.388992,192.899597 187.931244,186.184387 
	C194.211105,186.010757 199.695496,186.013672 205.179886,186.013382 
	C220.968430,186.012589 236.757156,186.045242 252.545258,185.959839 
	C254.289810,185.950409 257.510651,187.069489 256.222107,182.996780 
	C248.376038,167.094971 234.623535,161.336716 217.918823,161.046127 
	C204.694138,160.816055 191.462234,160.999817 178.233521,160.999817 
	C177.816193,160.348328 177.398865,159.696854 176.981522,159.045364 
	C180.707474,151.782471 184.433441,144.519577 188.797241,137.138550 
	C189.646667,137.043381 189.858276,137.066360 190.396835,137.330231 
	C191.870239,137.712723 193.016602,137.977570 194.163116,137.978149 
	C235.633621,137.999329 277.104156,138.004288 318.574646,137.960495 
	C320.011108,137.958984 321.447052,137.436432 323.212769,137.117340 
	C323.762543,137.056900 323.982758,137.035843 324.203003,137.014771 
z"/>
<path fill="#97D2BB" opacity="1.000000" stroke="none" 
	d="
M323.980377,136.620605 
	C323.982758,137.035843 323.762543,137.056900 322.756165,137.076599 
	C278.003326,137.079926 234.036591,137.084641 190.069870,137.089355 
	C189.858276,137.066360 189.646667,137.043381 189.115677,137.005615 
	C189.972473,136.659119 191.148300,136.038803 192.324890,136.037399 
	C235.645905,135.985840 278.966980,135.990891 322.288055,135.999451 
	C322.777954,135.999542 323.267853,136.147491 323.980377,136.620605 
z"/>
<path fill="#48B48D" opacity="1.000000" stroke="none" 
	d="
M178.616333,206.116791 
	C181.166367,206.319244 183.436279,206.945648 185.708359,206.953568 
	C207.302429,207.028931 228.896881,206.983963 250.491135,207.025787 
	C252.448608,207.029587 254.405411,207.397675 256.195892,207.855286 
	C231.796707,208.076401 207.564148,208.028290 183.331604,208.035339 
	C182.229675,208.035660 181.127869,208.533447 180.026001,208.799530 
	C179.463074,207.950958 178.900146,207.102386 178.616333,206.116791 
z"/>
<path fill="#8DE6BA" opacity="1.000000" stroke="none" 
	d="
M180.489319,208.880951 
	C181.127869,208.533447 182.229675,208.035660 183.331604,208.035339 
	C207.564148,208.028290 231.796707,208.076401 256.492859,208.146561 
	C256.956482,208.179153 256.921722,208.615524 256.947693,208.832703 
	C231.633316,209.020706 206.292969,208.991531 180.489319,208.880951 
z"/>
<path fill="#82CEB3" opacity="1.000000" stroke="none" 
	d="
M256.115509,183.425995 
	C257.510651,187.069489 254.289810,185.950409 252.545258,185.959839 
	C236.757156,186.045242 220.968430,186.012589 205.179886,186.013382 
	C199.695496,186.013672 194.211105,186.010757 188.239822,185.997375 
	C189.427734,185.656693 191.101562,185.047714 192.777481,185.041946 
	C212.235397,184.974930 231.693710,185.026077 251.151550,184.949356 
	C252.772079,184.942978 254.389862,184.236435 256.115509,183.425995 
z"/>
<path fill="#82CEB3" opacity="1.000000" stroke="none" 
	d="
M323.848450,185.619949 
	C312.412506,185.994202 300.759857,186.006363 289.107513,185.954468 
	C287.301819,185.946411 285.497406,185.645248 283.371399,185.226959 
	C296.577545,185.061783 310.104706,185.149307 323.848450,185.619949 
z"/>
<path fill="#8DE6BA" opacity="1.000000" stroke="none" 
	d="
M283.485687,209.028015 
	C283.231049,208.764389 283.443115,208.481689 284.334961,208.078659 
	C294.320007,207.950134 303.625305,207.941956 312.930634,207.933762 
	C313.402496,207.957321 313.874390,207.980865 314.700897,208.000732 
	C313.905212,208.319382 312.757507,208.910202 311.604095,208.921585 
	C302.387482,209.012619 293.169769,208.993988 283.485687,209.028015 
z"/>
<path fill="#48AF86" opacity="1.000000" stroke="none" 
	d="
M190.396835,137.330231 
	C234.036591,137.084641 278.003326,137.079926 322.426636,137.115967 
	C321.447052,137.436432 320.011108,137.958984 318.574646,137.960495 
	C277.104156,138.004288 235.633621,137.999329 194.163116,137.978149 
	C193.016602,137.977570 191.870239,137.712723 190.396835,137.330231 
z"/>
<path fill="#48B48D" opacity="1.000000" stroke="none" 
	d="
M312.606842,207.688202 
	C303.625305,207.941956 294.320007,207.950134 284.557220,207.931152 
	C293.494202,207.750183 302.888611,207.596420 312.606842,207.688202 
z"/>
</svg>